<?xml version="1.0" encoding="UTF-8"?> <svg xmlns="http://www.w3.org/2000/svg" xmlns:xlink="http://www.w3.org/1999/xlink" width="1440" height="486" viewBox="0 0 1440 486"><defs><circle id="blogheader-a" cx="208" cy="208" r="208"></circle><circle id="blogheader-c" cx="98" cy="98" r="98"></circle><circle id="blogheader-e" cx="1284" cy="345" r="208"></circle></defs><g fill="none" fill-rule="evenodd"><g transform="translate(903 227)"><mask id="blogheader-b" fill="#fff"><use xlink:href="#blogheader-a"></use></mask><g fill-opacity=".1" mask="url(#blogheader-b)"><g transform="translate(-180 -472)"><polygon fill="#4E85C8" fill-rule="nonzero" points="353.789 -142.817 361.874 -142.823 361.167 859.328 353.082 859.334" transform="rotate(45 357.478 358.255)"></polygon><polygon fill="#4E85C8" fill-rule="nonzero" points="353.787 -103.801 361.872 -103.807 361.164 898.344 353.079 898.35" transform="rotate(45 357.475 397.272)"></polygon><polygon fill="#4E85C8" fill-rule="nonzero" points="353.794 -64.784 361.879 -64.79 361.171 937.361 353.086 937.367" transform="rotate(45 357.483 436.289)"></polygon><polygon fill="#4E85C8" fill-rule="nonzero" points="353.792 -25.768 361.877 -25.773 361.17 976.377 353.084 976.383" transform="rotate(45 357.48 475.305)"></polygon><polygon fill="#4E85C8" fill-rule="nonzero" points="353.79 13.249 361.875 13.243 361.168 1015.394 353.083 1015.4" transform="rotate(45 357.479 514.321)"></polygon><polygon fill="#4E85C8" fill-rule="nonzero" points="353.777 52.263 361.862 52.257 361.155 1054.408 353.07 1054.414" transform="rotate(45 357.466 553.335)"></polygon><polygon fill="#4E85C8" fill-rule="nonzero" points="353.786 91.282 361.871 91.276 361.164 1093.427 353.079 1093.432" transform="rotate(45 357.475 592.354)"></polygon><polygon fill="#4E85C8" fill-rule="nonzero" points="353.784 130.298 361.869 130.293 361.162 1132.443 353.077 1132.449" transform="rotate(45 357.473 631.37)"></polygon><polygon fill="#4E85C8" fill-rule="nonzero" points="353.782 169.315 361.867 169.309 361.16 1171.46 353.075 1171.465" transform="rotate(45 357.471 670.387)"></polygon><polygon fill="#4E85C8" fill-rule="nonzero" points="353.767 208.327 361.852 208.321 361.145 1210.472 353.06 1210.478" transform="rotate(45 357.456 709.4)"></polygon><polygon fill="#4E85C8" fill-rule="nonzero" points="353.765 247.343 361.85 247.337 361.143 1249.488 353.058 1249.494" transform="rotate(45 357.454 748.415)"></polygon><polygon fill="#4E85C8" fill-rule="nonzero" points="353.776 286.364 361.861 286.359 361.154 1288.509 353.069 1288.515" transform="rotate(45 357.465 787.437)"></polygon><polygon fill="#4E85C8" fill-rule="nonzero" points="353.774 325.381 361.859 325.375 361.152 1327.526 353.067 1327.531" transform="rotate(45 357.463 826.453)"></polygon><polygon fill="#4E85C8" fill-rule="nonzero" points="353.758 364.391 361.843 364.385 361.135 1366.536 353.05 1366.542" transform="rotate(45 357.447 865.463)"></polygon><polygon fill="#4E85C8" fill-rule="nonzero" points="353.755 403.407 361.84 403.401 361.133 1405.552 353.048 1405.558" transform="rotate(45 357.444 904.48)"></polygon><polygon fill="#4E85C8" fill-rule="nonzero" points="353.769 442.43 361.854 442.424 361.146 1444.575 353.061 1444.581" transform="rotate(45 357.457 943.503)"></polygon><polygon fill="#4E85C8" fill-rule="nonzero" points="353.767 481.447 361.852 481.441 361.144 1483.592 353.059 1483.597" transform="rotate(45 357.456 982.52)"></polygon></g></g></g><g transform="translate(-98 91)"><mask id="blogheader-d" fill="#fff"><use xlink:href="#blogheader-c"></use></mask><g fill-opacity=".1" mask="url(#blogheader-d)"><g transform="translate(-85 -222)"><polygon fill="#4E85C8" fill-rule="nonzero" points="166.86 -67.36 170.669 -67.364 170.119 404.761 166.31 404.766" transform="rotate(45 168.49 168.7)"></polygon><polygon fill="#4E85C8" fill-rule="nonzero" points="166.859 -48.987 170.668 -48.992 170.118 423.134 166.309 423.138" transform="rotate(45 168.488 187.073)"></polygon><polygon fill="#4E85C8" fill-rule="nonzero" points="166.862 -30.614 170.671 -30.619 170.121 441.507 166.312 441.511" transform="rotate(45 168.492 205.446)"></polygon><polygon fill="#4E85C8" fill-rule="nonzero" points="166.862 -12.242 170.67 -12.246 170.12 459.879 166.311 459.884" transform="rotate(45 168.49 223.819)"></polygon><polygon fill="#4E85C8" fill-rule="nonzero" points="166.861 6.131 170.67 6.127 170.119 478.252 166.31 478.257" transform="rotate(45 168.49 242.192)"></polygon><polygon fill="#4E85C8" fill-rule="nonzero" points="166.854 24.503 170.663 24.498 170.113 496.624 166.304 496.628" transform="rotate(45 168.484 260.563)"></polygon><polygon fill="#4E85C8" fill-rule="nonzero" points="166.859 42.876 170.668 42.872 170.118 514.997 166.309 515.002" transform="rotate(45 168.488 278.937)"></polygon><polygon fill="#4E85C8" fill-rule="nonzero" points="166.858 61.249 170.667 61.245 170.117 533.37 166.308 533.375" transform="rotate(45 168.487 297.31)"></polygon><polygon fill="#4E85C8" fill-rule="nonzero" points="166.857 79.622 170.666 79.617 170.116 551.743 166.307 551.747" transform="rotate(45 168.486 315.682)"></polygon><polygon fill="#4E85C8" fill-rule="nonzero" points="166.85 97.993 170.659 97.988 170.109 570.114 166.3 570.118" transform="rotate(45 168.48 334.053)"></polygon><polygon fill="#4E85C8" fill-rule="nonzero" points="166.849 116.365 170.658 116.361 170.108 588.486 166.299 588.49" transform="rotate(45 168.478 352.425)"></polygon><polygon fill="#4E85C8" fill-rule="nonzero" points="166.854 134.74 170.663 134.736 170.113 606.861 166.304 606.865" transform="rotate(45 168.484 370.8)"></polygon><polygon fill="#4E85C8" fill-rule="nonzero" points="166.853 153.113 170.662 153.108 170.112 625.234 166.303 625.238" transform="rotate(45 168.483 389.173)"></polygon><polygon fill="#4E85C8" fill-rule="nonzero" points="166.845 171.482 170.654 171.478 170.104 643.603 166.295 643.608" transform="rotate(45 168.475 407.543)"></polygon><polygon fill="#4E85C8" fill-rule="nonzero" points="166.844 189.855 170.653 189.85 170.103 661.976 166.294 661.98" transform="rotate(45 168.474 425.915)"></polygon><polygon fill="#4E85C8" fill-rule="nonzero" points="166.851 208.231 170.66 208.226 170.109 680.352 166.3 680.356" transform="rotate(45 168.48 444.291)"></polygon><polygon fill="#4E85C8" fill-rule="nonzero" points="166.85 226.603 170.659 226.599 170.108 698.724 166.299 698.729" transform="rotate(45 168.479 462.664)"></polygon></g></g></g><use fill="#4E85C8" fill-opacity=".08" xlink:href="#blogheader-e"></use></g></svg> 